<svg id="ManagementSystem" width="100%" height="100%" version="1.1" style="shape-rendering:geometricPrecision; text-rendering:geometricPrecision; image-rendering:optimizeQuality;" viewBox="0 0 1000 1000">
	<g id="Pelayan">
		<circle id="PelayanRing" class="filNone strBlue" cx="720" cy="800" r="100"/>
		<g id="PelayanAvatar">
			<path id="PelayanBadan" class="filBlack" d="M749 806l-12 -3c5,-4 9,-10 12,-16 4,-1 7,-4 8,-11 0,-7 -2,-10 -5,-11 0,-3 0,-5 0,-7 -2,-21 -13,-31 -30,-29 -3,0 -5,0 -7,0 -9,-2 -19,6 -24,13 -6,10 -4,22 -4,23 -2,1 -4,4 -4,11 1,6 4,10 8,10 3,7 7,13 12,18l-12 2c-16,4 -27,19 -27,35l0 20c0,6 4,10 10,10l92 0c6,0 10,-4 10,-10l0 -20c0,-16 -11,-31 -27,-35zm-66 59l-9 0c-2,0 -4,-2 -4,-4l0 -20c0,-10 5,-19 13,-24l0 48zm11 -97c0,-1 0,-2 0,-2 1,-3 2,-5 3,-6 1,-3 4,-5 7,-6 0,0 0,0 0,-1 1,0 2,1 3,1 1,1 1,3 0,4 0,0 -1,0 -1,0 0,0 0,1 0,2 0,0 1,1 2,1 6,-1 17,-4 26,-12 2,-2 6,-1 8,1 2,2 3,4 3,7 1,3 1,7 1,11 0,17 -12,36 -26,36 -15,0 -26,-19 -26,-36zm28 97l-4 0 -22 -53 14 -4c3,2 6,3 10,3 3,0 7,-1 10,-3l14 4 -22 53zm48 -4c0,2 -2,4 -4,4l-9 0 0 -48c8,5 13,14 13,24l0 20 0 0z"/>
			<circle id="PelayanKancing2" class="filBlack" cx="720" cy="835" r="4"/>
			<circle id="PelayanKancing1" class="filBlack" cx="720" cy="848" r="4"/>
			<path id="PelayanPita1" class="filBlack" d="M731 814l-7 1c0,0 0,0 0,0 -1,0 -3,-1 -4,-1 -2,0 -3,1 -4,1 0,0 0,0 0,0l-7 -1c-2,-1 -3,0 -3,2l0 8c0,2 1,3 3,3l7 -2c1,1 2,1 4,1 1,0 3,0 4,-1l7 2c1,0 3,-1 3,-3l0 -8c0,-2 -2,-3 -3,-2z"/>
		</g>
		<path id="PelayanPita" class="filBlue" d="M654 865l-76 0 28 28 -28 28 57 0 19 -56zm0 14l0 -14 -19 14 19 0zm151 42l57 0 -28 -28 28 -28 -76 0 19 56zm0 -42l-19 -14 0 14 19 0zm-170 56l170 0 0 -56 -170 0 0 56 0 0z"/>
		<text x="663" y="918" id="PelayanTeks" class="filBlack fnt0">Pelayan</text>
	</g>
	<g id="Chef">
		<path id="ChefPanah5" class="filPurple" d="M503 893l0 6 0 0 -8 0 -8 0 -8 -1 -7 0 -8 -1 -7 0 -7 -1 -7 -1 -7 -1 -6 -1 -7 -1 -6 -1 -6 -1 -6 -1 -5 -2 -6 -1 -5 -1 -5 -1 -4 -1 -4 -1 -4 -1 -4 -2 -3 -1 -3 0 -3 -1 -2 -1 -3 -1 -1 0 -2 -1 -1 0 0 0 0 0 2 -6 0 0 1 0 0 1 2 0 1 1 2 0 3 1 2 1 3 1 4 1 3 1 4 1 4 1 5 1 5 1 5 1 5 2 5 1 6 1 6 1 6 1 6 1 7 1 7 1 7 1 7 1 7 0 7 1 8 0 7 1 8 0 8 0 0 0zm142 -28l3 6 0 0 -1 0 -1 0 -1 1 -1 1 -2 0 -2 1 -3 1 -3 1 -3 1 -3 1 -3 2 -4 1 -4 1 -5 2 -5 1 -4 1 -6 2 -5 1 -6 1 -5 1 -6 1 -7 2 -6 1 -7 1 -7 0 -7 1 -7 1 -8 0 -7 1 -8 0 -8 0 0 -6 8 0 8 0 7 -1 7 0 8 -1 6 -1 7 0 7 -1 6 -1 6 -1 6 -2 6 -1 6 -1 5 -1 5 -2 5 -1 4 -1 5 -2 4 -1 4 -1 3 -1 3 -1 3 -1 3 -1 2 -1 3 -1 1 -1 2 -1 1 0 1 0 0 -1 0 0zm21 -6l-17 19 0 -1 0 0 0 -1 0 -1 0 0 0 -1 0 -1 -1 0 0 -1 0 -1 0 0 0 -1 0 0 -1 -1 0 -1 0 0 0 -1 -1 0 0 -1 0 0 -1 -1 0 0 0 -1 -1 0 0 -1 -1 0 0 -1 -1 0 0 -1 -1 0 0 -1 -1 0 0 0 26 -1z"/>
		<circle id="ChefRing" class="filNone strPurple" cx="280" cy="800" r="100"/>
		<g id="ChefAvatar">
			<path id="ChefBadan" class="filBlack" d="M304 818l-9 -2c3,-3 6,-7 7,-12 4,0 6,-3 7,-9 0,-5 -1,-7 -3,-8l0 -15c5,-3 10,-9 10,-16 0,-11 -9,-20 -20,-18 -4,-6 -9,-10 -16,-10 -7,0 -13,4 -16,10 -11,-2 -20,7 -20,18 0,7 5,13 10,16l0 15c-2,1 -3,3 -3,8 0,6 3,9 7,9 1,5 4,9 7,12l-9 2c-13,4 -23,15 -23,29l0 17c0,4 4,8 9,8l76 0c5,0 9,-4 9,-8l0 -17c0,-14 -10,-25 -23,-29zm-49 49l-13 0c-2,0 -4,-2 -4,-3l0 -17c0,-10 7,-20 17,-23l0 43 0 0zm3 -98c-5,-2 -9,-8 -9,-13 0,-8 8,-15 16,-13l2 0 1 -2c2,-4 7,-8 12,-8 5,0 10,3 12,8l1 2 2 0c8,-2 16,5 16,13 0,5 -4,11 -9,13l-1 0 0 13 -21 0 -21 0 0 -13 -1 0zm2 19l20 0 20 0c0,0 0,1 0,1 0,13 -8,30 -20,30 -12,0 -21,-17 -21,-30 0,0 0,-1 1,-1zm62 76c0,1 -2,3 -4,3l-58 0 0 -44 9 -3c3,3 7,4 11,4 4,0 8,-1 11,-4l12 3c11,3 19,13 19,24l0 17 0 0z"/>
			<circle id="ChefKancing4" class="filBlack" cx="269" cy="838" r="4"/>
			<circle id="ChefKancing3" class="filBlack" cx="269" cy="853" r="4"/>
			<circle id="ChefKancing2" class="filBlack" cx="284" cy="838" r="4"/>
			<circle id="ChefKancing1" class="filBlack" cx="284" cy="853" r="4"/>
			<path id="ChefBrengos" class="filBlack" d="M274 807l6 0 5 0c2,0 3,-1 3,-3 0,-3 -2,-5 -5,-5l-3 0 -3 0c-3,0 -5,2 -5,5 0,2 1,3 2,3z"/>
		</g>
		<path id="ChefPita" class="filPurple" d="M214 865l-76 0 28 28 -28 28 57 0 19 -56zm0 14l0 -14 -19 14 19 0zm151 42l57 0 -28 -28 28 -28 -76 0 19 56zm0 -42l-19 -14 0 14 19 0zm-170 56l170 0 0 -56 -170 0 0 56 0 0z"/>
		<text x="241" y="918" id="KasirTeks" class="filBlack fnt0">Chef</text>
	</g>
	<g id="Kasir">
		<path id="KasirPanah4" class="filLime" d="M624 660l-3 -5 0 0 9 -7 9 -7 9 -8 8 -8 8 -8 8 -8 8 -8 7 -8 7 -8 7 -8 6 -8 6 -8 6 -7 6 -8 5 -7 5 -8 4 -6 5 -7 4 -7 4 -6 3 -5 3 -6 3 -5 3 -5 2 -4 2 -3 2 -4 1 -2 1 -2 1 -2 0 -1 0 0 6 2 0 1 -1 1 -1 1 -1 2 -1 3 -2 3 -2 4 -2 4 -3 5 -3 5 -3 6 -3 5 -4 7 -4 6 -5 7 -4 7 -5 7 -6 8 -5 7 -6 8 -6 8 -7 8 -6 8 -7 8 -8 8 -8 8 -7 8 -9 8 -8 8 -9 8 -9 8 -10 7 0 0zm-245 122l-2 -6 0 0 2 0 2 -1 2 -1 4 -1 4 -1 5 -2 5 -2 6 -2 6 -2 7 -3 8 -3 7 -3 9 -3 8 -3 9 -4 9 -4 10 -4 9 -5 10 -4 10 -5 11 -5 10 -5 10 -6 10 -6 11 -6 10 -6 10 -6 10 -7 10 -6 10 -7 10 -8 3 5 -9 7 -10 8 -10 6 -10 7 -11 6 -10 7 -11 6 -10 5 -10 6 -11 5 -10 5 -10 5 -10 5 -10 4 -9 5 -10 4 -9 3 -8 4 -8 3 -8 3 -8 3 -7 2 -6 3 -6 2 -5 2 -5 1 -4 2 -4 1 -3 1 -2 0 -1 1 0 0zm-21 3l19 -16 0 1 0 0 0 1 0 1 0 0 0 1 0 1 0 0 0 1 0 0 0 1 0 1 0 0 0 1 1 1 0 0 0 1 0 0 0 1 1 0 0 1 0 1 0 0 1 1 0 0 0 1 1 0 0 1 1 0 0 1 1 0 0 1 0 0 -25 -3z"/>
		<path id="KasirPanah5" class="filLime" d="M847 616l-6 -2 0 0 2 -6 2 -6 1 -6 2 -6 2 -6 1 -6 2 -5 1 -6 1 -5 1 -5 1 -5 1 -4 1 -5 1 -4 1 -4 0 -4 1 -4 0 -4 1 -3 0 -3 1 -3 0 -3 0 -2 0 -2 1 -2 0 -2 0 -1 0 -2 0 -1 0 0 0 -1 0 0 6 0 0 1 0 0 0 1 0 1 0 1 0 2 0 1 -1 2 0 3 0 2 0 3 -1 3 0 3 -1 3 0 4 -1 4 -1 4 0 4 -1 4 -1 5 -1 5 -1 4 -1 6 -1 5 -2 5 -1 6 -1 5 -2 6 -2 6 -2 6 -1 7 -2 6 0 0zm-55 114l-5 -3 0 0 1 0 0 -1 1 -1 0 -1 1 -2 1 -1 2 -2 1 -2 1 -2 2 -3 1 -3 2 -3 2 -3 2 -3 2 -4 2 -4 2 -4 2 -4 2 -4 2 -5 3 -5 2 -5 2 -5 2 -5 3 -5 2 -6 2 -6 2 -6 3 -6 2 -6 2 -6 6 2 -3 6 -2 6 -2 7 -2 5 -2 6 -3 6 -2 5 -2 6 -3 5 -2 5 -2 5 -2 4 -3 5 -2 4 -2 4 -2 4 -2 3 -2 4 -2 3 -1 3 -2 3 -2 3 -1 2 -1 2 -1 2 -2 2 0 1 -1 1 -1 1 0 1 -1 0 0 0zm-14 16l5 -25 0 1 1 0 0 1 0 1 1 0 0 1 1 0 0 1 0 0 1 1 0 0 1 0 0 1 1 0 0 1 1 0 0 0 1 1 0 0 1 0 0 1 1 0 1 0 0 0 1 1 0 0 1 0 1 0 0 0 1 0 1 1 0 0 0 0 -21 13z"/>
		<circle id="KasirRing" class="filNone strLime" cx="850" cy="400" r="100"/>
		<g id="KasirAvatar">
			<path id="KasirKerah" class="filBlack" d="M832 415l0 14c0,5 4,9 9,9l18 0c5,0 9,-4 9,-9l0 -14c-6,4 -12,7 -18,7 -6,0 -12,-3 -18,-7z"/>
			<path id="KasirLenganKiri" class="filBlack" d="M878 414l0 24c2,0 4,2 4,4l0 30 13 0c4,0 7,-3 7,-7l0 -20c0,-15 -10,-27 -24,-31z"/>
			<path id="KasirLenganKanan" class="filBlack" d="M798 445l0 20c0,4 3,7 7,7l13 0 0 -30c0,-2 2,-4 4,-4l0 -24c-14,4 -24,16 -24,31z"/>
			<path id="KasirKepala" class="filBlack" d="M886 382c1,-7 -1,-9 -4,-11 0,-1 1,-5 1,-6 0,-16 -15,-30 -28,-33 0,0 0,-1 0,-1 0,-1 -2,-3 -5,-3 -3,0 -5,2 -5,3 0,0 0,1 0,1 -12,3 -27,18 -27,33 0,1 0,1 0,2 0,2 0,3 0,5 -3,1 -5,4 -4,10 1,7 4,10 7,11 6,13 16,24 29,24 13,0 23,-11 29,-24 3,-1 7,-4 7,-11zm-36 28c-14,0 -26,-19 -26,-35 0,-1 0,-2 0,-3l5 4c1,2 4,2 6,0 3,-2 9,-4 15,-4 7,0 12,2 15,4 2,2 5,2 7,0l4 -4c0,1 0,2 0,3 0,16 -12,35 -26,35z"/>
		</g>
		<path id="KasirPita" class="filLime" d="M784 465l-76 0 28 28 -28 28 57 0 19 -56zm0 14l0 -14 -19 14 19 0zm151 42l57 0 -28 -28 28 -28 -76 0 19 56zm0 -42l-19 -14 0 14 19 0zm-170 56l170 0 0 -56 -170 0 0 56 0 0z"/>
		<text x="816" y="518" id="ChefTeks" class="filBlack fnt0">Kasir</text>
	</g>
	<g id="Manager">
		<path id="ManagerPanah5" class="filRed" d="M379 655l-3 5 0 0 -10 -7 -9 -8 -9 -8 -8 -8 -8 -8 -8 -8 -8 -8 -7 -8 -7 -8 -7 -8 -7 -8 -6 -8 -6 -8 -5 -7 -6 -8 -5 -7 -4 -7 -5 -7 -4 -6 -4 -7 -3 -5 -3 -6 -3 -5 -3 -5 -2 -4 -2 -4 -2 -3 -1 -3 -1 -2 -1 -1 0 -1 -1 -1 6 -2 0 0 0 1 1 2 1 2 2 2 1 4 2 3 2 4 3 5 3 5 3 6 4 5 3 6 4 7 5 7 4 6 5 8 6 7 5 8 6 7 6 8 6 8 7 8 7 8 7 8 8 8 8 8 8 8 8 8 9 8 9 7 9 7 0 0zm244 121l-2 6 0 0 -1 -1 -2 0 -3 -1 -4 -1 -4 -2 -4 -1 -6 -2 -6 -2 -6 -3 -7 -2 -8 -3 -7 -3 -9 -3 -8 -4 -9 -3 -9 -4 -10 -5 -10 -4 -10 -5 -10 -5 -10 -5 -10 -5 -11 -6 -10 -5 -11 -6 -10 -7 -10 -6 -11 -7 -10 -6 -10 -8 -9 -7 3 -5 10 8 10 7 10 6 10 7 10 6 10 6 11 6 10 6 10 6 11 5 10 5 10 5 10 4 9 5 10 4 9 4 9 4 9 3 8 3 8 3 7 3 7 3 6 2 6 2 6 2 4 2 4 1 4 1 2 1 2 1 2 0 0 0zm19 9l-25 3 1 -1 0 0 1 -1 0 0 0 -1 1 0 0 -1 0 0 1 -1 0 0 0 -1 1 -1 0 0 0 -1 0 0 0 -1 1 0 0 -1 0 -1 0 0 0 -1 0 -1 0 0 0 -1 0 0 0 -1 0 -1 0 0 0 -1 0 -1 0 0 0 -1 0 0 19 16z"/>
		<path id="ManagerPanah4" class="filRed" d="M159 614l-6 2 0 0 -2 -6 -2 -7 -2 -6 -1 -6 -2 -6 -1 -5 -2 -6 -1 -5 -1 -5 -1 -6 -1 -4 -1 -5 -1 -5 -1 -4 -1 -4 0 -4 -1 -4 -1 -4 0 -3 -1 -3 0 -3 0 -3 -1 -2 0 -3 0 -2 0 -1 0 -2 0 -1 0 -1 0 -1 0 0 0 -1 6 0 0 0 0 1 0 0 0 1 0 2 0 1 0 2 0 2 0 2 1 2 0 3 0 3 1 3 0 3 1 4 0 4 1 4 1 4 1 4 1 5 0 4 2 5 1 5 1 5 1 6 1 5 2 6 2 6 1 6 2 6 2 6 2 6 0 0zm53 113l-5 3 0 0 0 0 0 -1 -1 -1 -1 -1 -1 -1 -1 -2 -1 -2 -1 -2 -2 -2 -1 -3 -2 -3 -2 -3 -2 -3 -1 -4 -2 -3 -3 -4 -2 -4 -2 -4 -2 -5 -2 -4 -2 -5 -3 -5 -2 -5 -2 -6 -3 -5 -2 -6 -2 -6 -2 -5 -3 -7 -2 -6 -2 -6 6 -2 2 6 2 6 2 6 2 6 3 6 2 6 2 5 2 5 3 5 2 5 2 5 2 5 3 4 2 4 2 4 2 4 2 4 2 3 1 3 2 3 2 3 1 3 2 2 1 2 1 2 1 1 1 2 1 1 1 1 0 1 0 0 0 0zm10 19l-22 -13 1 0 1 -1 0 0 1 0 1 0 0 0 1 0 1 -1 0 0 1 0 0 0 1 -1 0 0 1 0 0 -1 1 0 0 0 1 -1 0 0 1 -1 0 0 1 0 0 -1 1 0 0 -1 1 0 0 -1 0 0 1 -1 0 -1 0 0 1 -1 0 0 5 25z"/>
		<path id="ManagerPanah3" class="filRed" d="M500 322l0 6 0 0 -12 1 -12 0 -12 0 -11 1 -12 1 -12 1 -11 1 -11 1 -12 2 -10 1 -11 2 -11 1 -10 2 -10 2 -9 1 -10 2 -8 2 -9 2 -8 1 -8 2 -7 2 -6 1 -6 2 -6 1 -5 1 -5 1 -3 1 -3 1 -3 1 -2 0 -1 1 0 0 -2 -6 0 0 2 0 1 -1 3 -1 3 0 4 -1 4 -2 5 -1 6 -1 6 -2 7 -1 7 -2 8 -2 8 -1 8 -2 9 -2 10 -1 9 -2 10 -2 10 -2 11 -1 11 -2 11 -1 11 -2 11 -1 12 -1 12 -1 11 -1 12 -1 12 0 12 0 12 -1 0 0zm258 37l-1 6 -1 0 -1 -1 -2 0 -2 -1 -3 -1 -4 -1 -5 -1 -5 -1 -5 -1 -6 -2 -7 -1 -7 -2 -8 -1 -8 -2 -8 -2 -9 -1 -9 -2 -10 -2 -10 -1 -10 -2 -11 -2 -10 -1 -11 -2 -12 -1 -11 -1 -11 -1 -12 -1 -12 -1 -11 -1 -12 0 -12 0 -12 -1 0 -6 12 1 12 0 12 0 12 1 12 1 11 1 12 1 11 1 11 2 11 1 11 1 11 2 10 2 10 1 10 2 9 2 9 1 8 2 8 2 8 1 7 2 7 2 6 1 6 1 5 2 4 1 4 1 3 0 3 1 2 1 1 0 0 0zm20 9l-25 3 0 -1 1 0 0 -1 0 0 1 -1 0 0 1 -1 0 0 0 -1 0 -1 1 0 0 -1 0 0 0 -1 1 0 0 -1 0 -1 0 0 0 -1 0 0 0 -1 0 -1 0 0 1 -1 0 -1 0 0 -1 -1 0 -1 0 0 0 -1 0 -1 0 0 0 0 20 16z"/>
		<circle id="ManagerRing" class="filNone strRed" cx="150" cy="400" r="100"/>
		<g id="ManagerAvatar">
			<path id="ManagerBadanKanan" class="filBlack" d="M142 433l2 -7c0,-1 0,-2 1,-2 0,0 0,-1 -1,-1l-15 -12 -9 2c-15,4 -26,17 -26,32l0 19c0,4 3,7 7,7l39 0 6 -33c-3,0 -5,-3 -4,-5z"/>
			<path id="ManagerBadanKiri" class="filBlack" d="M180 413l-9 -2 -15 12c0,0 0,1 -1,1 1,0 1,1 2,2l1 7c1,2 -1,5 -4,5l6 33 39 0c4,0 7,-3 7,-7l0 -19c0,-15 -11,-28 -26,-32z"/>
			<path id="ManagerKepala" class="filBlack" d="M179 390c4,-1 7,-4 8,-11 0,-5 -1,-8 -3,-10 6,-24 -11,-29 -11,-29 0,0 -12,-21 -36,-6 -3,2 -8,5 -11,9 -4,5 -7,13 -8,25 -3,1 -5,4 -5,11 1,7 5,11 9,11 5,13 16,24 28,24 13,0 24,-11 29,-24zm-29 18c-14,0 -26,-20 -26,-36 0,-2 0,-4 0,-6 22,1 34,-8 41,-15 6,6 10,14 12,20 0,1 0,1 0,1 0,16 -12,36 -27,36z"/>
		</g>
		<path id="ManagerPita" class="filRed" d="M84 465l-76 0 28 28 -28 28 57 0 19 -56zm0 14l0 -14 -19 14 19 0zm151 42l57 0 -28 -28 28 -28 -76 0 19 56zm0 -42l-19 -14 0 14 19 0zm-170 56l170 0 0 -56 -170 0 0 56 0 0z"/>
		<text x="86" y="518" id="ManagerTeks" class="filBlack fnt0">Manager</text>
	</g>
	<g id="Admin">
		<path id="AdminPanah5" class="filBlack" d="M677 461l-6 2 0 0 -5 -12 -5 -12 -5 -12 -5 -11 -6 -11 -5 -11 -6 -11 -5 -10 -6 -10 -5 -9 -6 -10 -5 -8 -5 -9 -5 -8 -6 -8 -4 -7 -5 -7 -5 -7 -4 -6 -5 -5 -4 -6 -3 -5 -4 -4 -3 -4 -3 -4 -3 -3 -2 -3 -2 -2 -1 -1 -1 -2 -1 0 0 -1 4 -4 1 1 0 0 1 2 2 1 2 3 2 2 3 3 3 4 3 4 3 5 4 5 4 5 4 6 5 6 5 7 4 7 5 7 6 8 5 8 5 8 6 9 5 10 6 9 5 10 6 10 5 11 6 11 5 11 5 12 6 11 5 13 5 12 0 0zm51 239l-6 0 0 0 0 -1 0 -2 0 -2 0 -2 0 -3 -1 -4 0 -4 0 -5 -1 -5 0 -6 -1 -6 0 -6 -1 -7 -1 -8 -1 -8 -1 -8 -2 -8 -1 -9 -2 -10 -2 -9 -2 -10 -3 -10 -2 -11 -3 -11 -3 -11 -3 -11 -4 -12 -4 -11 -4 -12 -4 -13 -5 -12 6 -2 4 12 5 13 4 12 4 12 3 11 4 12 3 11 3 11 2 10 3 10 2 10 2 10 2 10 1 9 2 8 1 8 1 8 1 8 1 7 0 6 1 7 0 5 1 6 0 4 0 5 1 3 0 4 0 2 0 2 0 2 0 1 0 0zm-3 21l-10 -23 0 0 1 0 1 1 0 0 1 0 1 0 0 0 1 1 0 0 1 0 1 0 0 0 1 0 1 0 0 0 1 0 0 0 1 0 1 0 0 0 1 0 1 0 0 0 1 0 0 0 1 -1 1 0 0 0 1 0 1 -1 0 0 1 0 0 0 -10 23z"/>
		<path id="AdminPanah4" class="filBlack" d="M334 463l-6 -2 0 0 5 -12 5 -13 6 -11 5 -12 5 -11 6 -11 5 -11 6 -10 5 -10 6 -9 5 -10 6 -9 5 -8 5 -8 5 -8 5 -7 5 -7 5 -7 4 -6 5 -6 4 -5 3 -5 4 -5 3 -4 3 -4 3 -3 2 -2 2 -3 1 -1 1 -2 1 0 0 -1 5 4 0 1 -1 0 -1 2 -2 1 -1 2 -3 3 -2 3 -3 4 -3 4 -4 4 -4 5 -4 6 -4 5 -4 6 -5 7 -5 7 -5 7 -5 8 -5 8 -5 9 -6 8 -5 10 -6 9 -5 10 -6 10 -5 11 -5 11 -6 11 -5 11 -5 12 -5 12 -5 12 0 0zm-51 237l-6 0 0 0 0 -1 0 -2 0 -2 0 -2 0 -4 0 -3 1 -5 0 -4 0 -6 1 -5 0 -7 1 -6 1 -7 1 -8 1 -8 1 -8 2 -8 1 -9 2 -10 2 -10 2 -10 3 -10 2 -10 3 -11 3 -11 3 -12 4 -11 4 -12 4 -12 4 -13 5 -12 6 2 -5 12 -4 13 -4 12 -4 11 -4 12 -3 11 -3 11 -3 11 -3 11 -2 10 -2 10 -2 9 -2 10 -1 9 -2 8 -1 8 -1 8 -1 8 -1 7 -1 6 0 6 -1 6 0 5 0 5 -1 4 0 4 0 3 0 2 0 2 0 2 0 1 0 0zm-3 21l-10 -23 1 0 0 0 1 1 0 0 1 0 1 0 0 1 1 0 1 0 0 0 1 0 1 0 0 0 1 0 0 0 1 0 1 0 0 0 1 0 1 0 0 0 1 0 0 0 1 0 1 -1 0 0 1 0 0 0 1 0 1 -1 0 0 1 0 0 0 -10 23z"/>
		<path id="AdminPanah3" class="filBlack" d="M745 188l-4 4 0 0 -7 -5 -7 -5 -7 -4 -8 -5 -7 -4 -6 -4 -7 -4 -7 -3 -6 -3 -6 -3 -6 -3 -6 -2 -6 -3 -6 -2 -5 -2 -5 -2 -5 -1 -4 -2 -5 -1 -4 -1 -3 -1 -4 -1 -3 -1 -3 0 -3 -1 -2 0 -2 -1 -2 0 -1 0 -1 0 0 0 0 0 0 -6 1 0 0 0 1 0 1 0 2 0 2 1 3 0 2 1 3 0 3 1 4 1 4 1 4 1 5 2 4 1 5 2 5 1 6 2 5 3 6 2 6 3 6 2 6 3 7 4 7 3 6 4 7 4 8 4 7 4 7 5 7 5 8 6 0 0zm101 111l-6 2 0 0 0 0 0 -1 -1 -1 0 -1 -1 -2 -1 -1 -1 -2 -1 -3 -2 -2 -1 -3 -2 -3 -2 -3 -2 -3 -3 -4 -2 -3 -3 -4 -3 -4 -4 -4 -3 -5 -4 -4 -4 -5 -5 -4 -5 -5 -5 -5 -5 -5 -6 -5 -5 -5 -7 -6 -6 -5 -7 -5 -8 -6 4 -4 7 5 7 5 7 6 6 5 6 5 6 6 6 5 5 5 5 4 4 5 4 5 4 4 4 5 3 4 4 4 3 4 2 4 3 3 2 4 2 3 2 3 2 3 1 2 1 3 1 2 1 2 1 1 1 2 0 1 1 0 0 1 0 0zm5 21l-18 -18 1 0 0 0 1 0 1 0 0 0 1 0 1 0 0 0 1 0 1 0 0 -1 1 0 0 0 1 0 1 0 0 0 1 -1 0 0 1 0 0 -1 1 0 1 0 0 0 1 -1 0 0 1 -1 0 0 1 0 0 -1 1 0 0 -1 1 0 0 0 -1 25z"/>
		<path id="AdminPanah2" class="filBlack" d="M259 192l-4 -4 0 0 8 -6 7 -5 7 -5 8 -4 7 -4 7 -4 7 -4 6 -3 7 -4 6 -3 6 -2 6 -3 6 -2 6 -3 5 -2 5 -1 5 -2 5 -1 4 -2 4 -1 4 -1 4 -1 3 -1 3 0 3 -1 2 0 2 -1 2 0 1 0 1 0 1 0 0 0 1 6 -1 0 0 0 -1 0 -1 0 -2 0 -2 1 -2 0 -3 1 -3 0 -3 1 -3 1 -4 1 -4 1 -4 1 -5 2 -5 1 -5 2 -5 2 -6 2 -5 3 -6 2 -6 3 -7 3 -6 3 -7 3 -6 4 -7 4 -7 4 -7 5 -8 4 -7 5 -7 5 0 0zm-99 109l-6 -2 0 0 1 -1 0 0 0 -1 1 -2 1 -1 1 -2 1 -2 1 -3 2 -2 1 -3 2 -3 2 -3 2 -4 3 -3 3 -4 3 -4 3 -4 3 -4 4 -5 4 -4 4 -5 5 -5 5 -4 5 -5 5 -5 6 -6 6 -5 6 -5 7 -6 7 -5 7 -5 4 4 -8 6 -6 5 -7 5 -6 6 -6 5 -6 5 -5 5 -5 5 -5 5 -4 4 -5 5 -3 4 -4 5 -3 4 -4 4 -2 4 -3 3 -3 4 -2 3 -2 3 -2 3 -1 3 -2 2 -1 3 -1 2 -1 1 0 2 -1 1 0 1 -1 1 0 0 0 0zm-10 19l-1 -25 0 0 1 1 0 0 1 1 0 0 1 0 0 1 1 0 0 1 1 0 0 0 1 0 0 1 1 0 1 0 0 1 1 0 0 0 1 0 0 0 1 0 1 1 0 0 1 0 1 0 0 0 1 0 1 0 0 0 1 0 1 0 0 0 0 0 -17 18z"/>
		<circle id="AdminRing" class="filNone strBlack" cx="500" cy="150" r="100"/>
		<g id="AdminAvatar">
			<path id="Badan_10" class="filBlack" d="M529 158l-12 -3c5,-4 9,-10 12,-17 4,-1 7,-4 8,-11 0,-6 -2,-9 -5,-10 0,-1 5,-23 -11,-28 -2,-3 -13,-19 -35,-6 -3,2 -8,6 -11,10 -4,4 -6,12 -7,24 -3,1 -5,3 -4,10 0,7 4,10 8,11 2,7 6,13 11,17l-12 3c-15,4 -26,18 -26,34l0 20c0,5 4,10 10,10l91 0c5,0 9,-5 9,-10l0 -20c0,-16 -10,-30 -26,-34zm-55 -38c0,-2 0,-4 1,-6 20,1 32,-7 38,-14 9,8 12,19 13,25 -2,15 -13,31 -26,31 -14,0 -26,-20 -26,-36zm75 92c0,2 -1,4 -3,4l-9 0 0 -9c0,0 -1,-1 -2,-1 -1,0 -1,1 -1,1l0 9 -21 0 -9 -35c3,0 5,-3 4,-5l-2 -7c0,-2 -2,-3 -4,-3l-4 0c-2,0 -3,1 -4,3l-1 7c-1,2 1,5 3,5l-8 35 -22 0 0 -9c0,0 0,-1 -1,-1 -1,0 -2,1 -2,1l0 9 -8 0c-2,0 -4,-2 -4,-4l0 -20c0,-13 9,-25 22,-28l17 -4c3,1 7,2 10,2 4,0 7,-1 10,-2l17 4c13,3 22,15 22,28l0 20z"/>
			<path id="Tisu" class="filBlack" d="M476 192c-2,-2 -5,-2 -6,0l-4 4c-1,1 -1,3 1,3l12 0c1,0 2,-2 1,-3l-4 -4z"/>
			<path id="KacaMata" class="filBlack" d="M499 128l3 0c0,5 4,8 9,8 5,0 9,-4 9,-9 0,-6 -5,-6 -9,-6 -4,0 -8,0 -9,4l-4 0c-1,-4 -5,-4 -9,-4 -4,0 -9,0 -9,6 0,5 4,9 9,9 5,0 9,-3 10,-8zm12 -4c5,0 6,1 6,3 0,3 -3,6 -6,6 -4,0 -6,-3 -6,-6 0,-2 1,-3 6,-3zm-28 3c0,-2 1,-3 6,-3 6,0 7,1 7,3 0,3 -3,6 -7,6 -3,0 -6,-3 -6,-6z"/>
		</g>
		<path id="AdminPita" class="filBlack" d="M434 215l-76 0 28 28 -28 28 57 0 19 -56zm0 14l0 -14 -19 14 19 0zm151 42l57 0 -28 -28 28 -28 -76 0 19 56zm0 -42l-19 -14 0 14 19 0zm-170 56l170 0 0 -56 -170 0 0 56 0 0z"/>
		<text x="451" y="268" id="AdminTeks" class="filWhite fnt0">Admin</text>
	</g>
	<text x="401" y="435" id="HabibahManagement" class="filBlack fnt1">Habibah</text>
	<text x="350" y="505" id="HabibahManagement" class="filBlack fnt1">Management</text>
	<text x="417" y="576" id="HabibahManagement" class="filBlack fnt1">System</text>
</svg>
